<svg width="76" height="1270" viewBox="0 0 76 1270" fill="none" xmlns="http://www.w3.org/2000/svg">
<path d="M73.1293 28.9531H56.331C56.0241 26.7798 55.3977 24.8494 54.4517 23.1619C53.5057 21.4489 52.2912 19.9915 50.8082 18.7898C49.3253 17.5881 47.6122 16.6676 45.669 16.0284C43.7514 15.3892 41.6676 15.0696 39.4176 15.0696C35.3523 15.0696 31.8111 16.0795 28.794 18.0994C25.777 20.0937 23.4375 23.0085 21.7756 26.8438C20.1136 30.6534 19.2827 35.2812 19.2827 40.7273C19.2827 46.3267 20.1136 51.0312 21.7756 54.8409C23.4631 58.6506 25.8153 61.527 28.8324 63.4702C31.8494 65.4134 35.3395 66.3849 39.3026 66.3849C41.527 66.3849 43.5852 66.0909 45.4773 65.5028C47.3949 64.9148 49.0952 64.0582 50.5781 62.9332C52.0611 61.7827 53.2884 60.3892 54.2599 58.7528C55.2571 57.1165 55.9474 55.25 56.331 53.1534L73.1293 53.2301C72.6946 56.8352 71.608 60.3125 69.8693 63.6619C68.1563 66.9858 65.8423 69.9645 62.9276 72.598C60.0384 75.206 56.5866 77.277 52.5724 78.8111C48.5838 80.3196 44.071 81.0739 39.0341 81.0739C32.0284 81.0739 25.7642 79.4886 20.2415 76.3182C14.7443 73.1477 10.3977 68.5582 7.2017 62.5497C4.03125 56.5412 2.44602 49.267 2.44602 40.7273C2.44602 32.1619 4.05682 24.875 7.27841 18.8665C10.5 12.858 14.8722 8.28125 20.3949 5.13636C25.9176 1.96591 32.1307 0.380679 39.0341 0.380679C43.5852 0.380679 47.804 1.01988 51.6903 2.29829C55.6023 3.5767 59.0668 5.44318 62.0838 7.89772C65.1009 10.3267 67.5554 13.3054 69.4474 16.8338C71.3651 20.3622 72.5923 24.402 73.1293 28.9531ZM76.0057 210.727C76.0057 219.293 74.3821 226.58 71.1349 232.588C67.9134 238.597 63.5156 243.186 57.9418 246.357C52.3935 249.501 46.1548 251.074 39.2259 251.074C32.2457 251.074 25.9815 249.489 20.4332 246.318C14.8849 243.148 10.5 238.558 7.27841 232.55C4.05682 226.541 2.44602 219.267 2.44602 210.727C2.44602 202.162 4.05682 194.875 7.27841 188.866C10.5 182.858 14.8849 178.281 20.4332 175.136C25.9815 171.966 32.2457 170.381 39.2259 170.381C46.1548 170.381 52.3935 171.966 57.9418 175.136C63.5156 178.281 67.9134 182.858 71.1349 188.866C74.3821 194.875 76.0057 202.162 76.0057 210.727ZM59.169 210.727C59.169 205.179 58.3381 200.5 56.6761 196.69C55.0398 192.881 52.7259 189.991 49.7344 188.023C46.7429 186.054 43.2401 185.07 39.2259 185.07C35.2116 185.07 31.7088 186.054 28.7173 188.023C25.7259 189.991 23.3991 192.881 21.7372 196.69C20.1009 200.5 19.2827 205.179 19.2827 210.727C19.2827 216.276 20.1009 220.955 21.7372 224.764C23.3991 228.574 25.7259 231.463 28.7173 233.432C31.7088 235.401 35.2116 236.385 39.2259 236.385C43.2401 236.385 46.7429 235.401 49.7344 233.432C52.7259 231.463 55.0398 228.574 56.6761 224.764C58.3381 220.955 59.169 216.276 59.169 210.727ZM69.5242 341.455V420H55.1804L21.0085 370.564H20.4332V420H3.8267V341.455H18.4006L52.304 390.852H52.9943V341.455H69.5242ZM3.8267 590V511.455H55.8324V525.146H20.4332V543.862H52.3807V557.554H20.4332V590H3.8267ZM31.6705 760H3.8267V681.455H31.9006C39.8011 681.455 46.6023 683.027 52.304 686.172C58.0057 689.291 62.3906 693.778 65.4588 699.634C68.5526 705.489 70.0994 712.494 70.0994 720.651C70.0994 728.832 68.5526 735.864 65.4588 741.744C62.3906 747.625 57.9801 752.138 52.2273 755.283C46.5 758.428 39.6477 760 31.6705 760ZM20.4332 745.771H30.9801C35.8892 745.771 40.0185 744.902 43.3679 743.163C46.7429 741.399 49.2741 738.676 50.9616 734.994C52.6747 731.287 53.5312 726.506 53.5312 720.651C53.5312 714.847 52.6747 710.104 50.9616 706.422C49.2741 702.74 46.7557 700.03 43.4062 698.291C40.0568 696.553 35.9276 695.683 31.0185 695.683H20.4332V745.771ZM3.8267 930V851.455H56.7528V865.146H20.4332V883.862H54.0298V897.554H20.4332V916.308H56.9062V930H3.8267ZM69.5242 1021.45V1100H55.1804L21.0085 1050.56H20.4332V1100H3.8267V1021.45H18.4006L52.304 1070.85H52.9943V1021.45H69.5242ZM0.835227 1205.15V1191.45H65.3438V1205.15H41.2969V1270H24.8821V1205.15H0.835227Z" fill="white"/>
</svg>
