<svg width="42" height="297" viewBox="0 0 42 297" fill="none" xmlns="http://www.w3.org/2000/svg">
<path d="M9.073 23.799H38.356V26.637H9.073V23.799ZM3.526 8.233H31.605V11.2H3.526V8.233ZM15.609 16.016H35.346V18.854H15.609V16.016ZM36.98 23.799H40.205C40.205 23.799 40.1907 23.885 40.162 24.057C40.162 24.229 40.1477 24.4297 40.119 24.659C40.119 24.8597 40.1047 25.0317 40.076 25.175C39.818 28.185 39.5457 30.6503 39.259 32.571C38.9723 34.463 38.657 35.9393 38.313 37C37.969 38.032 37.5677 38.7773 37.109 39.236C36.7077 39.666 36.2777 39.9527 35.819 40.096C35.3603 40.268 34.8157 40.3827 34.185 40.44C33.6403 40.4973 32.8663 40.5117 31.863 40.483C30.8883 40.483 29.842 40.4543 28.724 40.397C28.6953 39.967 28.595 39.4653 28.423 38.892C28.2797 38.3473 28.0647 37.86 27.778 37.43C28.8673 37.5447 29.885 37.6163 30.831 37.645C31.777 37.6737 32.4507 37.6737 32.852 37.645C33.2533 37.645 33.5687 37.6163 33.798 37.559C34.056 37.5017 34.271 37.387 34.443 37.215C34.787 36.8997 35.1023 36.269 35.389 35.323C35.6757 34.377 35.948 33.0153 36.206 31.238C36.4927 29.432 36.7507 27.11 36.98 24.272V23.799ZM27.434 28.959L29.67 28.099C30.358 28.959 31.003 29.9337 31.605 31.023C32.2357 32.1123 32.68 33.044 32.938 33.818L30.573 34.807C30.315 34.0043 29.885 33.0583 29.283 31.969C28.681 30.851 28.0647 29.8477 27.434 28.959ZM8.815 2.17L11.653 1.009C12.4843 1.84033 13.3157 2.80067 14.147 3.89C14.9783 4.97933 15.609 5.93967 16.039 6.771L13.072 8.147C12.6993 7.31567 12.0973 6.341 11.266 5.223C10.4633 4.07633 9.64633 3.05866 8.815 2.17ZM14.663 29.991L17.329 29.647C17.759 31.023 18.0743 32.5137 18.275 34.119C18.5043 35.7243 18.619 37.1003 18.619 38.247L15.781 38.677C15.8383 37.903 15.8097 37.0287 15.695 36.054C15.609 35.0507 15.48 34.033 15.308 33.001C15.1647 31.9403 14.9497 30.937 14.663 29.991ZM21.027 29.604L23.521 29.045C24.0943 30.2203 24.6103 31.496 25.069 32.872C25.5563 34.248 25.9003 35.4377 26.101 36.441L23.392 37.172C23.2487 36.14 22.9477 34.9217 22.489 33.517C22.0303 32.0837 21.543 30.7793 21.027 29.604ZM9.159 29.045L11.868 29.905C11.5527 31.109 11.1657 32.3417 10.707 33.603C10.2483 34.8357 9.68933 36.0253 9.03 37.172C8.39933 38.3187 7.654 39.322 6.794 40.182L4.3 38.462C5.10267 37.688 5.81933 36.785 6.45 35.753C7.08067 34.6923 7.611 33.5887 8.041 32.442C8.49967 31.2667 8.87233 30.1343 9.159 29.045ZM21.844 0.836999L25.112 1.654C24.166 4.664 23.005 7.61667 21.629 10.512C20.2817 13.3787 18.705 16.1163 16.899 18.725C15.1217 21.3337 13.072 23.756 10.75 25.992C8.45667 28.1993 5.891 30.1343 3.053 31.797C2.93833 31.539 2.76633 31.2523 2.537 30.937C2.33633 30.593 2.12133 30.2633 1.892 29.948C1.69133 29.604 1.49067 29.3173 1.29 29.088C3.956 27.5687 6.37833 25.7627 8.557 23.67C10.7357 21.5773 12.6707 19.2983 14.362 16.833C16.0533 14.3677 17.5153 11.7877 18.748 9.093C20.0093 6.36967 21.0413 3.61767 21.844 0.836999ZM30.917 8.233H33.927C33.6403 9.72366 33.3107 11.286 32.938 12.92C32.594 14.554 32.2643 15.9587 31.949 17.134L29.068 16.704C29.3833 15.5573 29.713 14.21 30.057 12.662C30.401 11.0853 30.6877 9.609 30.917 8.233ZM34.142 16.016H37.152C36.8653 17.5067 36.55 19.069 36.206 20.703C35.862 22.337 35.5323 23.7273 35.217 24.874L32.293 24.573C32.637 23.3977 32.981 22.0217 33.325 20.445C33.669 18.8683 33.9413 17.392 34.142 16.016ZM30.315 154.379H33.282V164.183C33.282 164.699 33.3537 165.029 33.497 165.172C33.6403 165.315 33.9557 165.387 34.443 165.387C34.615 165.387 34.916 165.387 35.346 165.387C35.8047 165.387 36.2633 165.387 36.722 165.387C37.1807 165.387 37.5103 165.387 37.711 165.387C38.055 165.387 38.2987 165.272 38.442 165.043C38.614 164.814 38.7287 164.326 38.786 163.581C38.872 162.836 38.9293 161.718 38.958 160.227C39.1587 160.37 39.4167 160.528 39.732 160.7C40.0473 160.843 40.377 160.972 40.721 161.087C41.065 161.202 41.366 161.302 41.624 161.388C41.538 163.194 41.366 164.584 41.108 165.559C40.8787 166.534 40.5203 167.207 40.033 167.58C39.5457 167.953 38.8863 168.139 38.055 168.139C37.9117 168.139 37.6393 168.139 37.238 168.139C36.8653 168.139 36.464 168.139 36.034 168.139C35.604 168.139 35.2027 168.139 34.83 168.139C34.4573 168.139 34.1993 168.139 34.056 168.139C33.0527 168.139 32.2787 168.01 31.734 167.752C31.1893 167.523 30.8167 167.121 30.616 166.548C30.4153 165.975 30.315 165.186 30.315 164.183V154.379ZM23.306 140.791V145.349H35.303V140.791H23.306ZM23.306 147.929V152.487H35.303V147.929H23.306ZM23.306 133.739V138.254H35.303V133.739H23.306ZM20.296 131.073H38.399V155.153H20.296V131.073ZM23.865 154.25H26.961C26.7317 156.486 26.3017 158.507 25.671 160.313C25.0403 162.119 24.0513 163.696 22.704 165.043C21.3853 166.419 19.522 167.551 17.114 168.44C16.9993 168.211 16.8273 167.938 16.598 167.623C16.3973 167.308 16.168 166.992 15.91 166.677C15.6807 166.39 15.4513 166.161 15.222 165.989C17.372 165.244 19.0347 164.312 20.21 163.194C21.3853 162.076 22.231 160.772 22.747 159.281C23.2917 157.762 23.6643 156.085 23.865 154.25ZM2.408 136.964H15.824V139.888H2.408V136.964ZM8.686 149.778L11.825 146.037V168.44H8.686V149.778ZM8.686 128.88H11.825V138.426H8.686V128.88ZM11.825 146.467C12.169 146.725 12.6707 147.155 13.33 147.757C14.018 148.359 14.7347 149.033 15.48 149.778C16.254 150.495 16.9563 151.154 17.587 151.756C18.2463 152.358 18.7193 152.802 19.006 153.089L17.028 155.755C16.6553 155.268 16.1537 154.68 15.523 153.992C14.921 153.304 14.2617 152.587 13.545 151.842C12.8283 151.097 12.1403 150.409 11.481 149.778C10.8503 149.119 10.32 148.588 9.89 148.187L11.825 146.467ZM14.706 136.964H15.351L15.953 136.835L17.759 137.996C16.727 140.605 15.394 143.113 13.76 145.521C12.126 147.929 10.32 150.122 8.342 152.1C6.39267 154.049 4.44333 155.698 2.494 157.045C2.37933 156.73 2.22167 156.386 2.021 156.013C1.82033 155.64 1.61967 155.282 1.419 154.938C1.21833 154.594 1.01767 154.322 0.817 154.121C2.68033 152.974 4.515 151.527 6.321 149.778C8.15567 148.029 9.804 146.109 11.266 144.016C12.728 141.923 13.8747 139.788 14.706 137.609V136.964ZM12.556 262.255H20.726V265.05H12.556V262.255ZM1.763 269.823H21.844V272.747H1.763V269.823ZM11.008 257.095H13.889V271.285H11.008V257.095ZM4.816 260.277H7.482V271.801H4.816V260.277ZM17.415 281.261L20.21 282.121C18.9487 285.762 16.985 288.772 14.319 291.151C11.653 293.502 8.24167 295.322 4.085 296.612C3.94167 296.182 3.68367 295.723 3.311 295.236C2.967 294.749 2.623 294.333 2.279 293.989C6.17767 292.957 9.38833 291.395 11.911 289.302C14.4337 287.209 16.2683 284.529 17.415 281.261ZM16.254 275.241L18.748 274.381C19.436 275.47 20.0953 276.66 20.726 277.95C21.3567 279.24 21.8153 280.344 22.102 281.261L19.436 282.293C19.2067 281.376 18.791 280.258 18.189 278.939C17.587 277.592 16.942 276.359 16.254 275.241ZM11.008 271.887H13.889V283.153C13.889 283.87 13.803 284.443 13.631 284.873C13.4877 285.274 13.1723 285.59 12.685 285.819C12.1977 286.048 11.5813 286.192 10.836 286.249C10.0907 286.278 9.17333 286.292 8.084 286.292C8.05533 285.891 7.955 285.446 7.783 284.959C7.63967 284.472 7.482 284.027 7.31 283.626C8.02667 283.655 8.686 283.669 9.288 283.669C9.89 283.669 10.2913 283.655 10.492 283.626C10.836 283.626 11.008 283.454 11.008 283.11V271.887ZM5.547 274.51L8.385 275.155C7.89767 276.846 7.267 278.509 6.493 280.143C5.74767 281.748 4.945 283.124 4.085 284.271C3.913 284.099 3.66933 283.927 3.354 283.755C3.03867 283.554 2.709 283.368 2.365 283.196C2.04967 283.024 1.77733 282.881 1.548 282.766C2.43667 281.734 3.225 280.487 3.913 279.025C4.601 277.534 5.14567 276.029 5.547 274.51ZM21.457 258.901H41.022V261.696H21.457V258.901ZM25.671 274.94V279.111H37.109V274.94H25.671ZM25.671 281.519V285.733H37.109V281.519H25.671ZM25.671 268.361V272.489H37.109V268.361H25.671ZM22.833 265.824H40.033V288.27H22.833V265.824ZM29.799 260.234L33.196 260.664C32.8807 261.897 32.5367 263.129 32.164 264.362C31.7913 265.595 31.4473 266.67 31.132 267.587L28.466 267.071C28.638 266.44 28.81 265.724 28.982 264.921C29.154 264.09 29.3117 263.273 29.455 262.47C29.627 261.639 29.7417 260.893 29.799 260.234ZM26.703 289.001L29.498 290.678C28.7813 291.395 27.9213 292.126 26.918 292.871C25.9433 293.616 24.9113 294.304 23.822 294.935C22.7327 295.566 21.672 296.096 20.64 296.526C20.382 296.239 20.038 295.881 19.608 295.451C19.178 295.05 18.791 294.706 18.447 294.419C19.479 294.018 20.5253 293.516 21.586 292.914C22.6467 292.283 23.6213 291.638 24.51 290.979C25.3987 290.291 26.1297 289.632 26.703 289.001ZM32.723 290.807L35.131 289.216C35.9337 289.732 36.765 290.32 37.625 290.979C38.485 291.638 39.302 292.298 40.076 292.957C40.85 293.588 41.4807 294.175 41.968 294.72L39.431 296.483C38.9723 295.967 38.356 295.365 37.582 294.677C36.8367 294.018 36.034 293.344 35.174 292.656C34.314 291.968 33.497 291.352 32.723 290.807Z" fill="white"/>
</svg>
