<svg width="171" height="1434" viewBox="0 0 171 1434" fill="none" xmlns="http://www.w3.org/2000/svg">
<g clip-path="url(#clip0_117_3)">
<path d="M48.228 250V104.545H144.535V129.901H78.9808V164.56H138.143V189.915H78.9808V250H48.228ZM49.5685 605H16.614L66.8271 459.545H106.458L156.6 605H123.645L87.2106 492.784H86.0742L49.5685 605ZM47.5089 547.827H125.35V571.832H47.5089V547.827ZM111.021 856.378C110.453 850.649 108.014 846.198 103.706 843.026C99.3969 839.853 93.5494 838.267 86.163 838.267C81.1441 838.267 76.9064 838.977 73.4499 840.398C69.9935 841.771 67.342 843.688 65.4954 846.151C63.6961 848.613 62.7965 851.406 62.7965 854.531C62.7018 857.135 63.2463 859.408 64.43 861.349C65.6611 863.291 67.342 864.972 69.4727 866.392C71.6033 867.765 74.0655 868.973 76.859 870.014C79.6526 871.009 82.6355 871.861 85.8079 872.571L98.8761 875.696C105.221 877.116 111.045 879.01 116.348 881.378C121.651 883.745 126.243 886.657 130.126 890.114C134.009 893.57 137.015 897.642 139.146 902.33C141.324 907.017 142.437 912.391 142.484 918.452C142.437 927.353 140.164 935.071 135.666 941.605C131.215 948.092 124.776 953.134 116.348 956.733C107.967 960.284 97.8581 962.06 86.021 962.06C74.2785 962.06 64.0513 960.26 55.3391 956.662C46.6744 953.063 39.9035 947.737 35.0266 940.682C30.1971 933.58 27.6639 924.796 27.4272 914.332H57.1857C57.5172 919.209 58.9139 923.281 61.3761 926.548C63.8855 929.768 67.2236 932.206 71.3903 933.864C75.6043 935.473 80.3628 936.278 85.6658 936.278C90.8742 936.278 95.396 935.521 99.2312 934.006C103.114 932.491 106.12 930.384 108.251 927.685C110.382 924.986 111.447 921.884 111.447 918.381C111.447 915.114 110.476 912.367 108.535 910.142C106.641 907.917 103.848 906.023 100.154 904.46C96.5086 902.898 92.0342 901.477 86.7312 900.199L70.8931 896.222C58.6299 893.239 48.9471 888.575 41.8448 882.23C34.7425 875.885 31.2151 867.339 31.2624 856.591C31.2151 847.784 33.5588 840.09 38.2937 833.509C43.0759 826.927 49.6336 821.79 57.967 818.097C66.3003 814.403 75.77 812.557 86.3761 812.557C97.1715 812.557 106.594 814.403 114.643 818.097C122.74 821.79 129.037 826.927 133.535 833.509C138.033 840.09 140.353 847.713 140.495 856.378H111.021ZM25.3054 1194.9V1169.55H144.766V1194.9H100.234V1315H69.8366V1194.9H25.3054Z" fill="white"/>
</g>
<g clip-path="url(#clip1_117_3)">
<path d="M48.228 250V104.545H144.535V129.901H78.9808V164.56H138.143V189.915H78.9808V250H48.228ZM49.5685 605H16.614L66.8271 459.545H106.458L156.6 605H123.645L87.2106 492.784H86.0742L49.5685 605ZM47.5089 547.827H125.35V571.832H47.5089V547.827ZM111.021 856.378C110.453 850.649 108.014 846.198 103.706 843.026C99.3969 839.853 93.5494 838.267 86.163 838.267C81.1441 838.267 76.9064 838.977 73.4499 840.398C69.9935 841.771 67.342 843.688 65.4954 846.151C63.6961 848.613 62.7965 851.406 62.7965 854.531C62.7018 857.135 63.2463 859.408 64.43 861.349C65.6611 863.291 67.342 864.972 69.4727 866.392C71.6033 867.765 74.0655 868.973 76.859 870.014C79.6526 871.009 82.6355 871.861 85.8079 872.571L98.8761 875.696C105.221 877.116 111.045 879.01 116.348 881.378C121.651 883.745 126.243 886.657 130.126 890.114C134.009 893.57 137.015 897.642 139.146 902.33C141.324 907.017 142.437 912.391 142.484 918.452C142.437 927.353 140.164 935.071 135.666 941.605C131.215 948.092 124.776 953.134 116.348 956.733C107.967 960.284 97.8581 962.06 86.021 962.06C74.2785 962.06 64.0513 960.26 55.3391 956.662C46.6744 953.063 39.9035 947.737 35.0266 940.682C30.1971 933.58 27.6639 924.796 27.4272 914.332H57.1857C57.5172 919.209 58.9139 923.281 61.3761 926.548C63.8855 929.768 67.2236 932.206 71.3903 933.864C75.6043 935.473 80.3628 936.278 85.6658 936.278C90.8742 936.278 95.396 935.521 99.2312 934.006C103.114 932.491 106.12 930.384 108.251 927.685C110.382 924.986 111.447 921.884 111.447 918.381C111.447 915.114 110.476 912.367 108.535 910.142C106.641 907.917 103.848 906.023 100.154 904.46C96.5086 902.898 92.0342 901.477 86.7312 900.199L70.8931 896.222C58.6299 893.239 48.9471 888.575 41.8448 882.23C34.7425 875.885 31.2151 867.339 31.2624 856.591C31.2151 847.784 33.5588 840.09 38.2937 833.509C43.0759 826.927 49.6336 821.79 57.967 818.097C66.3003 814.403 75.77 812.557 86.3761 812.557C97.1715 812.557 106.594 814.403 114.643 818.097C122.74 821.79 129.037 826.927 133.535 833.509C138.033 840.09 140.353 847.713 140.495 856.378H111.021ZM25.3054 1194.9V1169.55H144.766V1194.9H100.234V1315H69.8366V1194.9H25.3054Z" fill="white"/>
</g>
<g clip-path="url(#clip2_117_3)">
<path d="M48.228 230V84.5455H144.535V109.901H78.9808V144.56H138.143V169.915H78.9808V230H48.228ZM49.5685 585H16.614L66.8271 439.545H106.458L156.6 585H123.645L87.2106 472.784H86.0742L49.5685 585ZM47.5089 527.827H125.35V551.832H47.5089V527.827ZM111.021 836.378C110.453 830.649 108.014 826.198 103.706 823.026C99.3969 819.853 93.5494 818.267 86.163 818.267C81.1441 818.267 76.9064 818.977 73.4499 820.398C69.9935 821.771 67.342 823.688 65.4954 826.151C63.6961 828.613 62.7965 831.406 62.7965 834.531C62.7018 837.135 63.2463 839.408 64.43 841.349C65.6611 843.291 67.342 844.972 69.4727 846.392C71.6033 847.765 74.0655 848.973 76.859 850.014C79.6526 851.009 82.6355 851.861 85.8079 852.571L98.8761 855.696C105.221 857.116 111.045 859.01 116.348 861.378C121.651 863.745 126.243 866.657 130.126 870.114C134.009 873.57 137.015 877.642 139.146 882.33C141.324 887.017 142.437 892.391 142.484 898.452C142.437 907.353 140.164 915.071 135.666 921.605C131.215 928.092 124.776 933.134 116.348 936.733C107.967 940.284 97.8581 942.06 86.021 942.06C74.2785 942.06 64.0513 940.26 55.3391 936.662C46.6744 933.063 39.9035 927.737 35.0266 920.682C30.1971 913.58 27.6639 904.796 27.4272 894.332H57.1857C57.5172 899.209 58.9139 903.281 61.3761 906.548C63.8855 909.768 67.2236 912.206 71.3903 913.864C75.6043 915.473 80.3628 916.278 85.6658 916.278C90.8742 916.278 95.396 915.521 99.2312 914.006C103.114 912.491 106.12 910.384 108.251 907.685C110.382 904.986 111.447 901.884 111.447 898.381C111.447 895.114 110.476 892.367 108.535 890.142C106.641 887.917 103.848 886.023 100.154 884.46C96.5086 882.898 92.0342 881.477 86.7312 880.199L70.8931 876.222C58.6299 873.239 48.9471 868.575 41.8448 862.23C34.7425 855.885 31.2151 847.339 31.2624 836.591C31.2151 827.784 33.5588 820.09 38.2937 813.509C43.0759 806.927 49.6336 801.79 57.967 798.097C66.3003 794.403 75.77 792.557 86.3761 792.557C97.1715 792.557 106.594 794.403 114.643 798.097C122.74 801.79 129.037 806.927 133.535 813.509C138.033 820.09 140.353 827.713 140.495 836.378H111.021ZM25.3054 1174.9V1149.55H144.766V1174.9H100.234V1295H69.8366V1174.9H25.3054Z" fill="white"/>
</g>
<g clip-path="url(#clip3_117_3)">
<path d="M48.228 250V104.545H144.535V129.901H78.9808V164.56H138.143V189.915H78.9808V250H48.228ZM49.5685 605H16.614L66.8271 459.545H106.458L156.6 605H123.645L87.2106 492.784H86.0742L49.5685 605ZM47.5089 547.827H125.35V571.832H47.5089V547.827ZM111.021 856.378C110.453 850.649 108.014 846.198 103.706 843.026C99.3969 839.853 93.5494 838.267 86.163 838.267C81.1441 838.267 76.9064 838.977 73.4499 840.398C69.9935 841.771 67.342 843.688 65.4954 846.151C63.6961 848.613 62.7965 851.406 62.7965 854.531C62.7018 857.135 63.2463 859.408 64.43 861.349C65.6611 863.291 67.342 864.972 69.4727 866.392C71.6033 867.765 74.0655 868.973 76.859 870.014C79.6526 871.009 82.6355 871.861 85.8079 872.571L98.8761 875.696C105.221 877.116 111.045 879.01 116.348 881.378C121.651 883.745 126.243 886.657 130.126 890.114C134.009 893.57 137.015 897.642 139.146 902.33C141.324 907.017 142.437 912.391 142.484 918.452C142.437 927.353 140.164 935.071 135.666 941.605C131.215 948.092 124.776 953.134 116.348 956.733C107.967 960.284 97.8581 962.06 86.021 962.06C74.2785 962.06 64.0513 960.26 55.3391 956.662C46.6744 953.063 39.9035 947.737 35.0266 940.682C30.1971 933.58 27.6639 924.796 27.4272 914.332H57.1857C57.5172 919.209 58.9139 923.281 61.3761 926.548C63.8855 929.768 67.2236 932.206 71.3903 933.864C75.6043 935.473 80.3628 936.278 85.6658 936.278C90.8742 936.278 95.396 935.521 99.2312 934.006C103.114 932.491 106.12 930.384 108.251 927.685C110.382 924.986 111.447 921.884 111.447 918.381C111.447 915.114 110.476 912.367 108.535 910.142C106.641 907.917 103.848 906.023 100.154 904.46C96.5086 902.898 92.0342 901.477 86.7312 900.199L70.8931 896.222C58.6299 893.239 48.9471 888.575 41.8448 882.23C34.7425 875.885 31.2151 867.339 31.2624 856.591C31.2151 847.784 33.5588 840.09 38.2937 833.509C43.0759 826.927 49.6336 821.79 57.967 818.097C66.3003 814.403 75.77 812.557 86.3761 812.557C97.1715 812.557 106.594 814.403 114.643 818.097C122.74 821.79 129.037 826.927 133.535 833.509C138.033 840.09 140.353 847.713 140.495 856.378H111.021ZM25.3054 1194.9V1169.55H144.766V1194.9H100.234V1315H69.8366V1194.9H25.3054Z" fill="white"/>
</g>
<defs>
<clipPath id="clip0_117_3">
<rect width="171" height="649" fill="white"/>
</clipPath>
<clipPath id="clip1_117_3">
<rect width="86" height="333" fill="white" transform="translate(0 772)"/>
</clipPath>
<clipPath id="clip2_117_3">
<rect width="85" height="333" fill="white" transform="translate(86 752)"/>
</clipPath>
<clipPath id="clip3_117_3">
<rect width="171" height="353" fill="white" transform="translate(0 1081)"/>
</clipPath>
</defs>
</svg>
