<svg width="107" height="1542" viewBox="0 0 107 1542" fill="none" xmlns="http://www.w3.org/2000/svg">
<path d="M9.16548 181V75.5455H31.4613V162.618H76.6708V181H9.16548ZM106.072 385.273C106.072 396.772 103.893 406.556 99.533 414.623C95.2077 422.69 89.3034 428.852 81.82 433.108C74.3709 437.331 65.9949 439.442 56.6921 439.442C47.3207 439.442 38.9104 437.313 31.4613 433.057C24.0122 428.8 18.125 422.638 13.7997 414.571C9.47443 406.504 7.31179 396.738 7.31179 385.273C7.31179 373.773 9.47443 363.99 13.7997 355.923C18.125 347.856 24.0122 341.711 31.4613 337.489C38.9104 333.232 47.3207 331.104 56.6921 331.104C65.9949 331.104 74.3709 333.232 81.82 337.489C89.3034 341.711 95.2077 347.856 99.533 355.923C103.893 363.99 106.072 373.773 106.072 385.273ZM83.4677 385.273C83.4677 377.824 82.352 371.542 80.1207 366.427C77.9238 361.312 74.8171 357.433 70.8008 354.79C66.7844 352.147 62.0816 350.825 56.6921 350.825C51.3027 350.825 46.5998 352.147 42.5835 354.79C38.5671 357.433 35.4433 361.312 33.212 366.427C31.015 371.542 29.9165 377.824 29.9165 385.273C29.9165 392.722 31.015 399.004 33.212 404.119C35.4433 409.233 38.5671 413.112 42.5835 415.756C46.5998 418.399 51.3027 419.721 56.6921 419.721C62.0816 419.721 66.7844 418.399 70.8008 415.756C74.8171 413.112 77.9238 409.233 80.1207 404.119C82.352 399.004 83.4677 392.722 83.4677 385.273ZM28.2173 589.545L53.7056 669.666H54.6839L80.2237 589.545H104.94L68.5866 695H39.8544L3.44993 589.545H28.2173ZM9.16548 952V846.545H80.2237V864.928H31.4613V890.056H76.5678V908.438H31.4613V933.618H80.4297V952H9.16548ZM9.16548 1209V1103.55H31.4613V1190.62H76.6708V1209H9.16548ZM2.98651 1360.55H27.9599L52.0064 1405.96H53.0362L77.0827 1360.55H102.056L63.592 1428.72V1466H41.4506V1428.72L2.98651 1360.55Z" fill="white"/>
<path d="M29.03 522.799V525.637H58.313V522.799H29.03ZM23.483 507.276V510.243H51.605V507.276H23.483ZM35.609 515.016V517.897H55.303V515.016H35.609ZM56.937 522.799V523.315C56.249 531.872 55.432 535.269 54.443 536.258C54.056 536.602 53.626 536.688 52.809 536.688C51.992 536.688 49.928 536.688 47.778 536.43C48.294 537.29 48.638 538.537 48.681 539.44C50.917 539.526 53.067 539.569 54.142 539.483C55.432 539.397 56.249 539.096 57.066 538.279C58.442 536.86 59.259 533.291 60.033 524.218C60.119 523.745 60.162 522.799 60.162 522.799H56.937ZM47.391 527.959C48.681 529.765 50.014 532.259 50.573 533.807L52.938 532.818C52.379 531.27 51.046 528.862 49.67 527.099L47.391 527.959ZM28.815 501.17C30.492 502.976 32.298 505.513 33.029 507.19L36.039 505.814C35.179 504.18 33.287 501.729 31.61 500.009L28.815 501.17ZM34.663 529.034C35.394 531.829 35.867 535.355 35.781 537.677L38.619 537.29C38.619 534.968 38.146 531.399 37.286 528.69L34.663 529.034ZM40.984 528.647C42.059 531.012 43.091 534.151 43.392 536.215L46.058 535.484C45.714 533.463 44.639 530.41 43.521 528.045L40.984 528.647ZM29.159 528.045C28.299 531.356 26.665 535.183 24.257 537.462L26.751 539.225C29.374 536.602 30.879 532.517 31.868 528.948L29.159 528.045ZM41.844 499.88C38.576 511.017 31.954 522.025 21.29 528.088C21.849 528.776 22.666 530.066 23.053 530.84C34.448 524.089 41.199 512.737 45.112 500.697L41.844 499.88ZM50.874 507.276C50.401 510.028 49.67 513.468 49.068 515.747L51.906 516.134C52.551 513.812 53.325 510.243 53.927 507.276H50.874ZM54.099 515.016C53.669 517.768 52.938 521.251 52.293 523.573L55.217 523.917C55.819 521.595 56.55 517.983 57.152 515.016H54.099ZM50.315 783.379V793.183C50.315 796.236 51.003 797.139 54.013 797.139C54.615 797.139 57.41 797.139 58.055 797.139C60.506 797.139 61.323 795.806 61.624 790.388C60.807 790.173 59.56 789.743 58.958 789.227C58.829 793.785 58.657 794.387 57.668 794.387C57.109 794.387 54.873 794.387 54.443 794.387C53.454 794.387 53.282 794.215 53.282 793.183V783.379H50.315ZM43.306 769.834H55.26V774.392H43.306V769.834ZM43.306 776.929H55.26V781.53H43.306V776.929ZM43.306 762.782H55.26V767.254H43.306V762.782ZM40.296 760.116V784.196H58.356V760.116H40.296ZM43.822 783.293C43.22 788.797 41.629 792.839 35.222 794.989C35.867 795.591 36.77 796.752 37.114 797.483C44.252 794.774 46.23 790.001 46.961 783.293H43.822ZM22.365 765.964V768.931H35.781V765.964H22.365ZM28.643 778.821V797.44H31.782V775.037L28.643 778.821ZM28.643 757.923V767.426H31.782V757.923H28.643ZM31.782 775.467L29.89 777.187C31.61 778.735 35.523 782.863 36.985 784.798L38.963 782.089C37.845 780.971 33.158 776.585 31.782 775.467ZM34.706 765.964V766.652C32.212 773.188 26.364 779.724 20.817 783.164C21.333 783.723 22.15 785.228 22.451 786.045C28.342 782.089 34.663 774.908 37.716 767.039L35.91 765.835L35.351 765.964H34.706ZM32.556 1021.3V1024.05H40.726V1021.3H32.556ZM21.72 1028.87V1031.79H41.801V1028.87H21.72ZM31.008 1016.09V1030.33H33.889V1016.09H31.008ZM24.773 1019.28V1030.8H27.439V1019.28H24.773ZM37.372 1040.3C35.093 1046.8 30.019 1050.97 22.236 1052.99C22.967 1053.68 23.741 1054.75 24.042 1055.61C32.341 1053.08 37.716 1048.43 40.167 1041.16L37.372 1040.3ZM36.254 1034.28C37.587 1036.48 38.92 1039.49 39.436 1041.34L42.059 1040.26C41.5 1038.45 40.081 1035.57 38.748 1033.42L36.254 1034.28ZM31.008 1030.93V1042.15C31.008 1042.54 30.879 1042.63 30.449 1042.67C30.062 1042.71 28.729 1042.71 27.267 1042.67C27.611 1043.44 27.998 1044.52 28.084 1045.29C30.234 1045.29 31.696 1045.29 32.642 1044.86C33.674 1044.39 33.889 1043.61 33.889 1042.2V1030.93H31.008ZM25.504 1033.51C24.687 1036.56 23.268 1039.7 21.505 1041.81C22.236 1042.11 23.483 1042.84 24.085 1043.27C25.805 1041.03 27.439 1037.55 28.342 1034.15L25.504 1033.51ZM41.457 1017.9V1020.7H61.022V1017.9H41.457ZM45.671 1033.98H57.109V1038.11H45.671V1033.98ZM45.671 1040.56H57.109V1044.78H45.671V1040.56ZM45.671 1027.4H57.109V1031.53H45.671V1027.4ZM42.79 1024.87V1047.31H60.033V1024.87H42.79ZM49.799 1019.28C49.541 1021.25 48.896 1024.18 48.423 1026.07L51.089 1026.63C51.777 1024.82 52.508 1022.16 53.196 1019.71L49.799 1019.28ZM46.66 1048.04C45.026 1049.94 41.543 1052.22 38.404 1053.46C39.135 1054.02 40.124 1054.92 40.597 1055.57C43.693 1054.24 47.305 1051.91 49.498 1049.68L46.66 1048.04ZM52.68 1049.85C55.045 1051.53 58.012 1053.94 59.431 1055.53L61.925 1053.76C60.463 1052.13 57.453 1049.81 55.131 1048.26L52.68 1049.85Z" fill="white"/>
</svg>
