<svg width="126" height="1245" viewBox="0 0 126 1245" fill="none" xmlns="http://www.w3.org/2000/svg">
<path d="M30.432 0.319865L61.5339 98.0866H62.7277L93.8924 0.319865H124.052L79.6924 129H44.632L0.209751 0.319865H30.432ZM125.434 343.66C125.434 357.692 122.774 369.631 117.454 379.474C112.177 389.318 104.972 396.837 95.8402 402.031C86.7505 407.183 76.5298 409.759 65.1781 409.759C53.7427 409.759 43.4801 407.162 34.3904 401.968C25.3007 396.774 18.1169 389.255 12.839 379.411C7.56111 369.568 4.92216 357.651 4.92216 343.66C4.92216 329.627 7.56111 317.689 12.839 307.846C18.1169 298.002 25.3007 290.504 34.3904 285.352C43.4801 280.158 53.7427 277.561 65.1781 277.561C76.5298 277.561 86.7505 280.158 95.8402 285.352C104.972 290.504 112.177 298.002 117.454 307.846C122.774 317.689 125.434 329.627 125.434 343.66ZM97.8508 343.66C97.8508 334.57 96.4895 326.905 93.7667 320.663C91.0859 314.422 87.295 309.689 82.3941 306.463C77.4932 303.238 71.7546 301.625 65.1781 301.625C58.6017 301.625 52.863 303.238 47.9621 306.463C43.0612 309.689 39.2494 314.422 36.5267 320.663C33.8459 326.905 32.5054 334.57 32.5054 343.66C32.5054 352.75 33.8459 360.415 36.5267 366.656C39.2494 372.898 43.0612 377.631 47.9621 380.857C52.863 384.082 58.6017 385.695 65.1781 385.695C71.7546 385.695 77.4932 384.082 82.3941 380.857C87.295 377.631 91.0859 372.898 93.7667 366.656C96.4895 360.415 97.8508 352.75 97.8508 343.66ZM92.5101 599.915C91.6305 596.857 90.3948 594.155 88.803 591.809C87.2113 589.422 85.2635 587.411 82.9596 585.777C80.6977 584.102 78.1006 582.824 75.1684 581.945C72.2782 581.065 69.0737 580.625 65.5551 580.625C58.9787 580.625 53.1982 582.259 48.2135 585.526C43.2707 588.793 39.417 593.548 36.6524 599.789C33.8878 605.988 32.5054 613.57 32.5054 622.534C32.5054 631.498 33.8668 639.122 36.5895 645.405C39.3123 651.688 43.166 656.485 48.1506 659.794C53.1353 663.061 59.0206 664.695 65.8065 664.695C71.964 664.695 77.221 663.606 81.5773 661.427C85.9756 659.207 89.3266 656.087 91.6305 652.065C93.9762 648.044 95.149 643.29 95.149 637.802L100.678 638.619H67.5029V618.136H121.35V634.347C121.35 645.656 118.962 655.375 114.187 663.501C109.412 671.585 102.836 677.827 94.4579 682.225C86.0803 686.581 76.4879 688.759 65.6808 688.759C53.617 688.759 43.0194 686.099 33.8878 680.78C24.7562 675.418 17.6352 667.815 12.5248 657.972C7.45639 648.086 4.92216 636.357 4.92216 622.786C4.92216 612.355 6.43013 603.056 9.44607 594.888C12.5039 586.678 16.7765 579.725 22.2638 574.028C27.7512 568.331 34.1391 563.996 41.4276 561.022C48.7161 558.048 56.612 556.561 65.1153 556.561C72.4038 556.561 79.1897 557.629 85.4729 559.765C91.7561 561.859 97.3272 564.833 102.186 568.687C107.087 572.541 111.087 577.128 114.187 582.447C117.287 587.725 119.277 593.548 120.156 599.915H92.5101ZM86.6667 837.32H113.873V920.887C113.873 930.269 111.632 938.48 107.15 945.517C102.71 952.554 96.4895 958.041 88.4889 961.979C80.4882 965.874 71.1681 967.822 60.5286 967.822C49.8471 967.822 40.5061 965.874 32.5054 961.979C24.5048 958.041 18.2845 952.554 13.8443 945.517C9.40418 938.48 7.18411 930.269 7.18411 920.887V837.32H34.3904V918.562C34.3904 923.463 35.4586 927.819 37.5948 931.631C39.773 935.443 42.8309 938.438 46.7683 940.616C50.7058 942.794 55.2926 943.883 60.5286 943.883C65.8065 943.883 70.3932 942.794 74.2888 940.616C78.2263 938.438 81.2632 935.443 83.3994 931.631C85.5776 927.819 86.6667 923.463 86.6667 918.562V837.32ZM7.18411 1245V1116.32H93.8924V1138.75H34.3904V1169.41H89.4313V1191.84H34.3904V1222.57H94.1437V1245H7.18411Z" fill="white"/>
</svg>
